<mxfile host="app.diagrams.net" agent="Mozilla/5.0 (Windows NT 10.0; Win64; x64) AppleWebKit/537.36 (KHTML, like Gecko) Chrome/139.0.0.0 Safari/537.36" version="28.2.0">
  <diagram name="Trang-1" id="Jln02jwHa1L6OahOriPV">
    <mxGraphModel dx="1708" dy="1849" grid="1" gridSize="10" guides="1" tooltips="1" connect="1" arrows="1" fold="1" page="1" pageScale="1" pageWidth="827" pageHeight="1169" math="0" shadow="0">
      <root>
        <mxCell id="0" />
        <mxCell id="1" parent="0" />
        <mxCell id="5xjQaFgQOJaISFA-GmFy-3" value="&lt;font style=&quot;font-size: 24px;&quot; face=&quot;Times New Roman&quot;&gt;Quản lý mượn- trả - đặt trước&lt;/font&gt;" style="ellipse;whiteSpace=wrap;html=1;" parent="1" vertex="1">
          <mxGeometry x="590" y="110" width="180" height="80" as="geometry" />
        </mxCell>
        <mxCell id="5xjQaFgQOJaISFA-GmFy-4" value="&lt;font style=&quot;font-size: 24px;&quot; face=&quot;Times New Roman&quot;&gt;Quản lý sách&lt;/font&gt;" style="ellipse;whiteSpace=wrap;html=1;" parent="1" vertex="1">
          <mxGeometry x="1360" y="-325" width="150" height="60" as="geometry" />
        </mxCell>
        <mxCell id="5xjQaFgQOJaISFA-GmFy-5" value="&lt;font face=&quot;Times New Roman&quot;&gt;&lt;span style=&quot;font-size: 24px;&quot;&gt;Báo cáo - thống kê&lt;/span&gt;&lt;/font&gt;" style="ellipse;whiteSpace=wrap;html=1;" parent="1" vertex="1">
          <mxGeometry x="650" y="510" width="180" height="90" as="geometry" />
        </mxCell>
        <mxCell id="5xjQaFgQOJaISFA-GmFy-7" value="&lt;font face=&quot;Times New Roman&quot;&gt;&lt;span style=&quot;font-size: 24px;&quot;&gt;Quản lý thông báo và phản hồi&lt;/span&gt;&lt;/font&gt;" style="ellipse;whiteSpace=wrap;html=1;" parent="1" vertex="1">
          <mxGeometry x="627" y="-50" width="200" height="110" as="geometry" />
        </mxCell>
        <mxCell id="5xjQaFgQOJaISFA-GmFy-10" value="&lt;font style=&quot;font-size: 24px;&quot; face=&quot;Times New Roman&quot;&gt;Quản trị viên&lt;/font&gt;" style="rounded=0;whiteSpace=wrap;html=1;" parent="1" vertex="1">
          <mxGeometry x="180" y="660" width="160" height="60" as="geometry" />
        </mxCell>
        <mxCell id="5xjQaFgQOJaISFA-GmFy-11" value="&lt;font face=&quot;Times New Roman&quot;&gt;&lt;span style=&quot;font-size: 24px;&quot;&gt;Độc giả&lt;/span&gt;&lt;/font&gt;" style="rounded=0;whiteSpace=wrap;html=1;" parent="1" vertex="1">
          <mxGeometry x="210" y="-40" width="160" height="60" as="geometry" />
        </mxCell>
        <mxCell id="5xjQaFgQOJaISFA-GmFy-12" value="&lt;font face=&quot;Times New Roman&quot;&gt;&lt;span style=&quot;font-size: 24px;&quot;&gt;Thủ thư&lt;/span&gt;&lt;/font&gt;" style="rounded=0;whiteSpace=wrap;html=1;" parent="1" vertex="1">
          <mxGeometry x="200" y="240" width="160" height="60" as="geometry" />
        </mxCell>
        <mxCell id="5xjQaFgQOJaISFA-GmFy-20" value="&lt;font style=&quot;font-size: 24px;&quot; face=&quot;Times New Roman&quot;&gt;Dữ liệu sách&lt;/font&gt;" style="shape=partialRectangle;whiteSpace=wrap;html=1;left=0;right=0;fillColor=none;" parent="1" vertex="1">
          <mxGeometry x="1030" y="-325" width="130" height="60" as="geometry" />
        </mxCell>
        <mxCell id="5xjQaFgQOJaISFA-GmFy-31" value="" style="endArrow=classic;html=1;rounded=0;exitX=0.5;exitY=1;exitDx=0;exitDy=0;entryX=0;entryY=0;entryDx=0;entryDy=0;" parent="1" source="5xjQaFgQOJaISFA-GmFy-11" target="5xjQaFgQOJaISFA-GmFy-3" edge="1">
          <mxGeometry width="50" height="50" relative="1" as="geometry">
            <mxPoint x="770" y="-110" as="sourcePoint" />
            <mxPoint x="820" y="-160" as="targetPoint" />
          </mxGeometry>
        </mxCell>
        <mxCell id="5xjQaFgQOJaISFA-GmFy-33" value="&lt;font style=&quot;font-size: 18px;&quot; face=&quot;Times New Roman&quot;&gt;Yêu cầu mượn, trả, đặt trước&amp;nbsp;&lt;/font&gt;" style="text;html=1;align=center;verticalAlign=middle;resizable=0;points=[];autosize=1;strokeColor=none;fillColor=none;rotation=15;" parent="1" vertex="1">
          <mxGeometry x="373.9957117826008" y="49.99997429003372" width="240" height="40" as="geometry" />
        </mxCell>
        <mxCell id="5xjQaFgQOJaISFA-GmFy-34" value="&lt;font style=&quot;font-size: 24px;&quot; face=&quot;Times New Roman&quot;&gt;Dữ liệu thông báo, phản hồi&lt;/font&gt;" style="shape=partialRectangle;whiteSpace=wrap;html=1;left=0;right=0;fillColor=none;" parent="1" vertex="1">
          <mxGeometry x="1045" y="-170" width="160" height="70" as="geometry" />
        </mxCell>
        <mxCell id="5xjQaFgQOJaISFA-GmFy-37" value="" style="endArrow=classic;html=1;rounded=0;exitX=0;exitY=0.5;exitDx=0;exitDy=0;entryX=0.428;entryY=0.007;entryDx=0;entryDy=0;entryPerimeter=0;" parent="1" source="5xjQaFgQOJaISFA-GmFy-34" target="5xjQaFgQOJaISFA-GmFy-7" edge="1">
          <mxGeometry width="50" height="50" relative="1" as="geometry">
            <mxPoint x="770" y="-20" as="sourcePoint" />
            <mxPoint x="820" y="-70" as="targetPoint" />
          </mxGeometry>
        </mxCell>
        <mxCell id="5xjQaFgQOJaISFA-GmFy-38" value="&lt;font face=&quot;Times New Roman&quot;&gt;&lt;span style=&quot;font-size: 18px;&quot;&gt;thông tin&amp;nbsp;&lt;/span&gt;&lt;/font&gt;&lt;div&gt;&lt;font face=&quot;Times New Roman&quot;&gt;&lt;span style=&quot;font-size: 18px;&quot;&gt;phản hồi&lt;/span&gt;&lt;/font&gt;&lt;/div&gt;" style="text;html=1;align=center;verticalAlign=middle;resizable=0;points=[];autosize=1;strokeColor=none;fillColor=none;rotation=0;" parent="1" vertex="1">
          <mxGeometry x="810" y="-120" width="90" height="60" as="geometry" />
        </mxCell>
        <mxCell id="5xjQaFgQOJaISFA-GmFy-40" value="" style="endArrow=classic;html=1;rounded=0;entryX=0.148;entryY=1.057;entryDx=0;entryDy=0;entryPerimeter=0;" parent="1" source="5xjQaFgQOJaISFA-GmFy-3" target="5xjQaFgQOJaISFA-GmFy-20" edge="1">
          <mxGeometry width="50" height="50" relative="1" as="geometry">
            <mxPoint x="770" y="-120" as="sourcePoint" />
            <mxPoint x="820" y="-170" as="targetPoint" />
            <Array as="points">
              <mxPoint x="1260" y="140" />
              <mxPoint x="1270" y="-180" />
            </Array>
          </mxGeometry>
        </mxCell>
        <mxCell id="5xjQaFgQOJaISFA-GmFy-41" value="" style="endArrow=classic;html=1;rounded=0;exitX=0.554;exitY=1.017;exitDx=0;exitDy=0;exitPerimeter=0;entryX=0.5;entryY=1;entryDx=0;entryDy=0;" parent="1" source="5xjQaFgQOJaISFA-GmFy-20" target="5xjQaFgQOJaISFA-GmFy-3" edge="1">
          <mxGeometry width="50" height="50" relative="1" as="geometry">
            <mxPoint x="770" y="-20" as="sourcePoint" />
            <mxPoint x="820" y="-70" as="targetPoint" />
            <Array as="points">
              <mxPoint x="1160" y="-250" />
              <mxPoint x="1360" y="-240" />
              <mxPoint x="1340" y="190" />
            </Array>
          </mxGeometry>
        </mxCell>
        <mxCell id="5xjQaFgQOJaISFA-GmFy-42" value="" style="endArrow=classic;html=1;rounded=0;entryX=0;entryY=1;entryDx=0;entryDy=0;exitX=1;exitY=0;exitDx=0;exitDy=0;" parent="1" source="5xjQaFgQOJaISFA-GmFy-3" target="ekQeNUblwh0Tk4kjdS5w-22" edge="1">
          <mxGeometry width="50" height="50" relative="1" as="geometry">
            <mxPoint x="770" y="-20" as="sourcePoint" />
            <mxPoint x="820" y="-70" as="targetPoint" />
          </mxGeometry>
        </mxCell>
        <mxCell id="5xjQaFgQOJaISFA-GmFy-44" value="" style="endArrow=classic;html=1;rounded=0;exitX=0;exitY=0;exitDx=0;exitDy=0;entryX=1;entryY=0.25;entryDx=0;entryDy=0;" parent="1" target="5xjQaFgQOJaISFA-GmFy-11" edge="1" source="5xjQaFgQOJaISFA-GmFy-7">
          <mxGeometry width="50" height="50" relative="1" as="geometry">
            <mxPoint x="630" y="-4.618527782440651e-14" as="sourcePoint" />
            <mxPoint x="369" y="-8.55" as="targetPoint" />
            <Array as="points" />
          </mxGeometry>
        </mxCell>
        <mxCell id="wK7g14wnSPadoTdF2Lle-1" value="&lt;font face=&quot;Times New Roman&quot;&gt;&lt;span style=&quot;font-size: 18px;&quot;&gt;ghi nhận mượn/ trả/ đặt trước&lt;/span&gt;&lt;/font&gt;" style="text;html=1;align=center;verticalAlign=middle;resizable=0;points=[];autosize=1;strokeColor=none;fillColor=none;rotation=0;" parent="1" vertex="1">
          <mxGeometry x="1030" y="100" width="240" height="40" as="geometry" />
        </mxCell>
        <mxCell id="wK7g14wnSPadoTdF2Lle-2" value="&lt;font face=&quot;Times New Roman&quot;&gt;&lt;span style=&quot;font-size: 18px;&quot;&gt;lịch sử mượn/ trả/ đặt trước&lt;/span&gt;&lt;/font&gt;" style="text;html=1;align=center;verticalAlign=middle;resizable=0;points=[];autosize=1;strokeColor=none;fillColor=none;rotation=0;" parent="1" vertex="1">
          <mxGeometry x="1131" y="150" width="220" height="40" as="geometry" />
        </mxCell>
        <mxCell id="wK7g14wnSPadoTdF2Lle-3" value="&lt;font face=&quot;Times New Roman&quot;&gt;&lt;span style=&quot;font-size: 18px;&quot;&gt;thông tin mượn,&lt;/span&gt;&lt;/font&gt;&lt;div&gt;&lt;span style=&quot;background-color: transparent; color: light-dark(rgb(0, 0, 0), rgb(255, 255, 255)); font-family: &amp;quot;Times New Roman&amp;quot;; font-size: 18px;&quot;&gt;trả&lt;/span&gt;&lt;/div&gt;" style="text;html=1;align=center;verticalAlign=middle;resizable=0;points=[];autosize=1;strokeColor=none;fillColor=none;rotation=0;" parent="1" vertex="1">
          <mxGeometry x="840" y="80" width="140" height="60" as="geometry" />
        </mxCell>
        <mxCell id="wK7g14wnSPadoTdF2Lle-7" value="" style="endArrow=classic;html=1;rounded=0;exitX=1;exitY=0.75;exitDx=0;exitDy=0;entryX=0.064;entryY=0.778;entryDx=0;entryDy=0;entryPerimeter=0;" parent="1" source="5xjQaFgQOJaISFA-GmFy-11" target="5xjQaFgQOJaISFA-GmFy-7" edge="1">
          <mxGeometry width="50" height="50" relative="1" as="geometry">
            <mxPoint x="770" y="160" as="sourcePoint" />
            <mxPoint x="820" y="110" as="targetPoint" />
          </mxGeometry>
        </mxCell>
        <mxCell id="wK7g14wnSPadoTdF2Lle-9" value="&lt;font face=&quot;Times New Roman&quot;&gt;&lt;span style=&quot;font-size: 18px;&quot;&gt;thông báo,phản hồi độc giả&lt;/span&gt;&lt;/font&gt;" style="text;html=1;align=center;verticalAlign=middle;resizable=0;points=[];autosize=1;strokeColor=none;fillColor=none;rotation=0;" parent="1" vertex="1">
          <mxGeometry x="400.0004470051759" y="-14.99595986601696" width="220" height="40" as="geometry" />
        </mxCell>
        <mxCell id="wK7g14wnSPadoTdF2Lle-10" value="" style="endArrow=classic;html=1;rounded=0;exitX=1;exitY=0.5;exitDx=0;exitDy=0;entryX=0.965;entryY=0.71;entryDx=0;entryDy=0;entryPerimeter=0;" parent="1" source="5xjQaFgQOJaISFA-GmFy-12" target="5xjQaFgQOJaISFA-GmFy-7" edge="1">
          <mxGeometry width="50" height="50" relative="1" as="geometry">
            <mxPoint x="770" y="160" as="sourcePoint" />
            <mxPoint x="820" y="110" as="targetPoint" />
            <Array as="points">
              <mxPoint x="840" y="270" />
            </Array>
          </mxGeometry>
        </mxCell>
        <mxCell id="wK7g14wnSPadoTdF2Lle-17" value="&lt;font face=&quot;Times New Roman&quot;&gt;&lt;span style=&quot;font-size: 18px;&quot;&gt;thông báo, phản hồi thủ thư&lt;/span&gt;&lt;/font&gt;" style="text;html=1;align=center;verticalAlign=middle;resizable=0;points=[];autosize=1;strokeColor=none;fillColor=none;rotation=0;" parent="1" vertex="1">
          <mxGeometry x="380.00044700517583" y="240.00404013398304" width="220" height="40" as="geometry" />
        </mxCell>
        <mxCell id="wK7g14wnSPadoTdF2Lle-21" value="" style="endArrow=classic;html=1;rounded=0;exitX=1;exitY=1;exitDx=0;exitDy=0;entryX=1;entryY=1;entryDx=0;entryDy=0;" parent="1" source="5xjQaFgQOJaISFA-GmFy-7" target="5xjQaFgQOJaISFA-GmFy-12" edge="1">
          <mxGeometry width="50" height="50" relative="1" as="geometry">
            <mxPoint x="770" y="160" as="sourcePoint" />
            <mxPoint x="820" y="110" as="targetPoint" />
            <Array as="points">
              <mxPoint x="820" y="300" />
            </Array>
          </mxGeometry>
        </mxCell>
        <mxCell id="wK7g14wnSPadoTdF2Lle-22" value="&lt;font face=&quot;Times New Roman&quot;&gt;&lt;span style=&quot;font-size: 18px;&quot;&gt;thông tin thông báo thủ thư&amp;nbsp;&lt;/span&gt;&lt;/font&gt;" style="text;html=1;align=center;verticalAlign=middle;resizable=0;points=[];autosize=1;strokeColor=none;fillColor=none;rotation=0;" parent="1" vertex="1">
          <mxGeometry x="390" y="270" width="220" height="40" as="geometry" />
        </mxCell>
        <mxCell id="wK7g14wnSPadoTdF2Lle-24" value="&lt;font face=&quot;Times New Roman&quot;&gt;&lt;span style=&quot;font-size: 18px;&quot;&gt;thông báo tới độc giả&lt;/span&gt;&lt;/font&gt;" style="text;html=1;align=center;verticalAlign=middle;resizable=0;points=[];autosize=1;strokeColor=none;fillColor=none;rotation=0;" parent="1" vertex="1">
          <mxGeometry x="420" y="-60" width="180" height="40" as="geometry" />
        </mxCell>
        <mxCell id="wK7g14wnSPadoTdF2Lle-25" value="" style="endArrow=classic;html=1;rounded=0;exitX=0.564;exitY=1;exitDx=0;exitDy=0;exitPerimeter=0;" parent="1" source="5xjQaFgQOJaISFA-GmFy-12" edge="1">
          <mxGeometry width="50" height="50" relative="1" as="geometry">
            <mxPoint x="770" y="260" as="sourcePoint" />
            <mxPoint x="680" y="190" as="targetPoint" />
            <Array as="points">
              <mxPoint x="291" y="360" />
              <mxPoint x="680" y="360" />
            </Array>
          </mxGeometry>
        </mxCell>
        <mxCell id="wK7g14wnSPadoTdF2Lle-26" value="&lt;font face=&quot;Times New Roman&quot;&gt;&lt;span style=&quot;font-size: 18px;&quot;&gt;xử lí mượn trả mượn/ trả&lt;/span&gt;&lt;/font&gt;" style="text;html=1;align=center;verticalAlign=middle;resizable=0;points=[];autosize=1;strokeColor=none;fillColor=none;rotation=0;" parent="1" vertex="1">
          <mxGeometry x="394" y="330" width="200" height="40" as="geometry" />
        </mxCell>
        <mxCell id="wK7g14wnSPadoTdF2Lle-27" value="" style="endArrow=classic;html=1;rounded=0;exitX=0.444;exitY=1.053;exitDx=0;exitDy=0;exitPerimeter=0;entryX=0.5;entryY=1;entryDx=0;entryDy=0;" parent="1" source="5xjQaFgQOJaISFA-GmFy-12" target="5xjQaFgQOJaISFA-GmFy-4" edge="1">
          <mxGeometry width="50" height="50" relative="1" as="geometry">
            <mxPoint x="770" y="360" as="sourcePoint" />
            <mxPoint x="1500.800048828125" y="440" as="targetPoint" />
            <Array as="points">
              <mxPoint x="270" y="440" />
              <mxPoint x="1440" y="440" />
            </Array>
          </mxGeometry>
        </mxCell>
        <mxCell id="wK7g14wnSPadoTdF2Lle-28" value="&lt;font face=&quot;Times New Roman&quot;&gt;&lt;span style=&quot;font-size: 18px;&quot;&gt;cập nhật thông tin sách&lt;/span&gt;&lt;/font&gt;" style="text;html=1;align=center;verticalAlign=middle;resizable=0;points=[];autosize=1;strokeColor=none;fillColor=none;rotation=0;" parent="1" vertex="1">
          <mxGeometry x="655" y="405" width="190" height="40" as="geometry" />
        </mxCell>
        <mxCell id="wK7g14wnSPadoTdF2Lle-31" value="" style="endArrow=classic;html=1;rounded=0;exitX=1;exitY=0.5;exitDx=0;exitDy=0;" parent="1" source="5xjQaFgQOJaISFA-GmFy-5" target="wK7g14wnSPadoTdF2Lle-37" edge="1">
          <mxGeometry width="50" height="50" relative="1" as="geometry">
            <mxPoint x="1050" y="370" as="sourcePoint" />
            <mxPoint x="1320" y="560" as="targetPoint" />
            <Array as="points">
              <mxPoint x="1100" y="555" />
            </Array>
          </mxGeometry>
        </mxCell>
        <mxCell id="wK7g14wnSPadoTdF2Lle-32" value="&lt;font face=&quot;Times New Roman&quot;&gt;&lt;span style=&quot;font-size: 18px;&quot;&gt;kết quả báo cáo&lt;/span&gt;&lt;/font&gt;" style="text;html=1;align=center;verticalAlign=middle;resizable=0;points=[];autosize=1;strokeColor=none;fillColor=none;rotation=0;" parent="1" vertex="1">
          <mxGeometry x="900" y="520" width="140" height="40" as="geometry" />
        </mxCell>
        <mxCell id="wK7g14wnSPadoTdF2Lle-33" value="&lt;font face=&quot;Times New Roman&quot;&gt;&lt;span style=&quot;font-size: 18px;&quot;&gt;yêu cầu báo cáo&lt;/span&gt;&lt;/font&gt;" style="text;html=1;align=center;verticalAlign=middle;resizable=0;points=[];autosize=1;strokeColor=none;fillColor=none;rotation=0;" parent="1" vertex="1">
          <mxGeometry x="460" y="660" width="140" height="40" as="geometry" />
        </mxCell>
        <mxCell id="wK7g14wnSPadoTdF2Lle-34" value="" style="endArrow=classic;html=1;rounded=0;exitX=1;exitY=0.5;exitDx=0;exitDy=0;entryX=0.404;entryY=1.031;entryDx=0;entryDy=0;entryPerimeter=0;" parent="1" source="5xjQaFgQOJaISFA-GmFy-10" target="5xjQaFgQOJaISFA-GmFy-5" edge="1">
          <mxGeometry width="50" height="50" relative="1" as="geometry">
            <mxPoint x="1050" y="730" as="sourcePoint" />
            <mxPoint x="718" y="600" as="targetPoint" />
            <Array as="points">
              <mxPoint x="718" y="690" />
            </Array>
          </mxGeometry>
        </mxCell>
        <mxCell id="wK7g14wnSPadoTdF2Lle-35" value="" style="endArrow=classic;html=1;rounded=0;exitX=0;exitY=0.75;exitDx=0;exitDy=0;entryX=1;entryY=1;entryDx=0;entryDy=0;" parent="1" source="wK7g14wnSPadoTdF2Lle-37" target="5xjQaFgQOJaISFA-GmFy-10" edge="1">
          <mxGeometry width="50" height="50" relative="1" as="geometry">
            <mxPoint x="1050" y="370" as="sourcePoint" />
            <mxPoint x="1100" y="320" as="targetPoint" />
            <Array as="points">
              <mxPoint x="900" y="720" />
            </Array>
          </mxGeometry>
        </mxCell>
        <mxCell id="wK7g14wnSPadoTdF2Lle-36" value="&lt;font face=&quot;Times New Roman&quot;&gt;&lt;span style=&quot;font-size: 18px;&quot;&gt;kết quả báo cáo&lt;/span&gt;&lt;/font&gt;" style="text;html=1;align=center;verticalAlign=middle;resizable=0;points=[];autosize=1;strokeColor=none;fillColor=none;rotation=0;" parent="1" vertex="1">
          <mxGeometry x="730" y="680" width="140" height="40" as="geometry" />
        </mxCell>
        <mxCell id="wK7g14wnSPadoTdF2Lle-37" value="&lt;font style=&quot;font-size: 24px;&quot; face=&quot;Times New Roman&quot;&gt;Dữ liệu thống kê, báo cáo&lt;/font&gt;" style="shape=partialRectangle;whiteSpace=wrap;html=1;left=0;right=0;fillColor=none;" parent="1" vertex="1">
          <mxGeometry x="1260" y="510" width="210" height="110" as="geometry" />
        </mxCell>
        <mxCell id="wK7g14wnSPadoTdF2Lle-55" value="" style="endArrow=classic;html=1;rounded=0;exitX=0.778;exitY=0.913;exitDx=0;exitDy=0;exitPerimeter=0;entryX=0.837;entryY=-0.008;entryDx=0;entryDy=0;entryPerimeter=0;" parent="1" source="5xjQaFgQOJaISFA-GmFy-7" target="5xjQaFgQOJaISFA-GmFy-10" edge="1">
          <mxGeometry width="50" height="50" relative="1" as="geometry">
            <mxPoint x="1050" y="400" as="sourcePoint" />
            <mxPoint x="1100" y="350" as="targetPoint" />
            <Array as="points">
              <mxPoint x="782" y="380" />
              <mxPoint x="330" y="400" />
            </Array>
          </mxGeometry>
        </mxCell>
        <mxCell id="wK7g14wnSPadoTdF2Lle-56" value="&lt;font face=&quot;Times New Roman&quot;&gt;&lt;span style=&quot;font-size: 18px;&quot;&gt;thông tin&amp;nbsp;&lt;/span&gt;&lt;/font&gt;&lt;div&gt;&lt;font face=&quot;Times New Roman&quot;&gt;&lt;span style=&quot;font-size: 18px;&quot;&gt;thông báo&lt;/span&gt;&lt;/font&gt;&lt;/div&gt;" style="text;html=1;align=center;verticalAlign=middle;resizable=0;points=[];autosize=1;strokeColor=none;fillColor=none;rotation=0;" parent="1" vertex="1">
          <mxGeometry x="319" y="520" width="100" height="60" as="geometry" />
        </mxCell>
        <mxCell id="ekQeNUblwh0Tk4kjdS5w-1" value="" style="endArrow=classic;html=1;rounded=0;exitX=0.439;exitY=-0.003;exitDx=0;exitDy=0;exitPerimeter=0;entryX=0.066;entryY=0.748;entryDx=0;entryDy=0;entryPerimeter=0;" edge="1" parent="1" source="5xjQaFgQOJaISFA-GmFy-11" target="ekQeNUblwh0Tk4kjdS5w-6">
          <mxGeometry width="50" height="50" relative="1" as="geometry">
            <mxPoint x="600" y="-20" as="sourcePoint" />
            <mxPoint x="760" y="-200" as="targetPoint" />
            <Array as="points">
              <mxPoint x="280" y="-200" />
            </Array>
          </mxGeometry>
        </mxCell>
        <mxCell id="ekQeNUblwh0Tk4kjdS5w-2" value="" style="endArrow=classic;html=1;rounded=0;exitX=0;exitY=0.5;exitDx=0;exitDy=0;entryX=0.084;entryY=0.228;entryDx=0;entryDy=0;entryPerimeter=0;" edge="1" parent="1" source="5xjQaFgQOJaISFA-GmFy-12" target="ekQeNUblwh0Tk4kjdS5w-6">
          <mxGeometry width="50" height="50" relative="1" as="geometry">
            <mxPoint x="600" y="100" as="sourcePoint" />
            <mxPoint x="750" y="-240" as="targetPoint" />
            <Array as="points">
              <mxPoint x="160" y="270" />
              <mxPoint x="160" y="-240" />
            </Array>
          </mxGeometry>
        </mxCell>
        <mxCell id="ekQeNUblwh0Tk4kjdS5w-3" value="&lt;font face=&quot;Times New Roman&quot;&gt;&lt;span style=&quot;font-size: 18px;&quot;&gt;thông tin&amp;nbsp;&lt;/span&gt;&lt;/font&gt;&lt;div&gt;&lt;font face=&quot;Times New Roman&quot;&gt;&lt;span style=&quot;font-size: 18px;&quot;&gt;độc giả&lt;/span&gt;&lt;/font&gt;&lt;/div&gt;" style="text;html=1;align=center;verticalAlign=middle;resizable=0;points=[];autosize=1;strokeColor=none;fillColor=none;rotation=0;" vertex="1" parent="1">
          <mxGeometry x="270" y="-150" width="90" height="60" as="geometry" />
        </mxCell>
        <mxCell id="ekQeNUblwh0Tk4kjdS5w-4" value="&lt;font face=&quot;Times New Roman&quot;&gt;&lt;span style=&quot;font-size: 18px;&quot;&gt;thông tin&amp;nbsp;&lt;/span&gt;&lt;/font&gt;&lt;div&gt;&lt;font face=&quot;Times New Roman&quot;&gt;&lt;span style=&quot;font-size: 18px;&quot;&gt;thủ thư&lt;/span&gt;&lt;/font&gt;&lt;/div&gt;" style="text;html=1;align=center;verticalAlign=middle;resizable=0;points=[];autosize=1;strokeColor=none;fillColor=none;rotation=0;" vertex="1" parent="1">
          <mxGeometry x="160" y="100" width="90" height="60" as="geometry" />
        </mxCell>
        <mxCell id="ekQeNUblwh0Tk4kjdS5w-6" value="&lt;font face=&quot;Times New Roman&quot;&gt;&lt;span style=&quot;font-size: 24px;&quot;&gt;Quản lý tài khoản&lt;/span&gt;&lt;/font&gt;" style="ellipse;whiteSpace=wrap;html=1;" vertex="1" parent="1">
          <mxGeometry x="420" y="-260" width="180" height="80" as="geometry" />
        </mxCell>
        <mxCell id="ekQeNUblwh0Tk4kjdS5w-8" value="&lt;font face=&quot;Times New Roman&quot;&gt;&lt;span style=&quot;font-size: 24px;&quot;&gt;Dữ liệu người dùng&lt;/span&gt;&lt;/font&gt;" style="shape=partialRectangle;whiteSpace=wrap;html=1;left=0;right=0;fillColor=none;" vertex="1" parent="1">
          <mxGeometry x="710" y="-330" width="160" height="70" as="geometry" />
        </mxCell>
        <mxCell id="ekQeNUblwh0Tk4kjdS5w-9" value="" style="endArrow=classic;html=1;rounded=0;entryX=0;entryY=0.5;entryDx=0;entryDy=0;" edge="1" parent="1" source="ekQeNUblwh0Tk4kjdS5w-6" target="5xjQaFgQOJaISFA-GmFy-34">
          <mxGeometry width="50" height="50" relative="1" as="geometry">
            <mxPoint x="600" y="-90" as="sourcePoint" />
            <mxPoint x="650" y="-140" as="targetPoint" />
          </mxGeometry>
        </mxCell>
        <mxCell id="ekQeNUblwh0Tk4kjdS5w-10" value="&lt;font face=&quot;Times New Roman&quot;&gt;&lt;span style=&quot;font-size: 18px;&quot;&gt;thông tin người dùng&lt;/span&gt;&lt;/font&gt;" style="text;html=1;align=center;verticalAlign=middle;resizable=0;points=[];autosize=1;strokeColor=none;fillColor=none;rotation=0;" vertex="1" parent="1">
          <mxGeometry x="637" y="-180" width="180" height="40" as="geometry" />
        </mxCell>
        <mxCell id="ekQeNUblwh0Tk4kjdS5w-11" value="" style="endArrow=classic;html=1;rounded=0;exitX=0.5;exitY=0;exitDx=0;exitDy=0;entryX=0;entryY=0;entryDx=0;entryDy=0;" edge="1" parent="1" source="ekQeNUblwh0Tk4kjdS5w-6" target="ekQeNUblwh0Tk4kjdS5w-8">
          <mxGeometry width="50" height="50" relative="1" as="geometry">
            <mxPoint x="600" y="-90" as="sourcePoint" />
            <mxPoint x="650" y="-140" as="targetPoint" />
          </mxGeometry>
        </mxCell>
        <mxCell id="ekQeNUblwh0Tk4kjdS5w-12" value="&lt;font face=&quot;Times New Roman&quot;&gt;&lt;span style=&quot;font-size: 18px;&quot;&gt;cập nhật thông tin người dùng&lt;/span&gt;&lt;/font&gt;" style="text;html=1;align=center;verticalAlign=middle;resizable=0;points=[];autosize=1;strokeColor=none;fillColor=none;rotation=-15;" vertex="1" parent="1">
          <mxGeometry x="470" y="-340" width="240" height="40" as="geometry" />
        </mxCell>
        <mxCell id="ekQeNUblwh0Tk4kjdS5w-14" value="&lt;font face=&quot;Times New Roman&quot;&gt;&lt;span style=&quot;font-size: 18px;&quot;&gt;thông tin sau&amp;nbsp;&lt;/span&gt;&lt;/font&gt;&lt;div&gt;&lt;font face=&quot;Times New Roman&quot;&gt;&lt;span style=&quot;font-size: 18px;&quot;&gt;cập nhật&lt;/span&gt;&lt;/font&gt;&lt;/div&gt;" style="text;html=1;align=center;verticalAlign=middle;resizable=0;points=[];autosize=1;strokeColor=none;fillColor=none;rotation=-15;" vertex="1" parent="1">
          <mxGeometry x="599.9974800567386" y="-280.0031980619161" width="120" height="60" as="geometry" />
        </mxCell>
        <mxCell id="ekQeNUblwh0Tk4kjdS5w-15" value="" style="endArrow=classic;html=1;rounded=0;exitX=0;exitY=0.5;exitDx=0;exitDy=0;" edge="1" parent="1" source="ekQeNUblwh0Tk4kjdS5w-8" target="ekQeNUblwh0Tk4kjdS5w-6">
          <mxGeometry width="50" height="50" relative="1" as="geometry">
            <mxPoint x="600" y="-90" as="sourcePoint" />
            <mxPoint x="650" y="-140" as="targetPoint" />
          </mxGeometry>
        </mxCell>
        <mxCell id="ekQeNUblwh0Tk4kjdS5w-16" value="" style="endArrow=classic;html=1;rounded=0;exitX=1;exitY=0.25;exitDx=0;exitDy=0;entryX=0.048;entryY=0.213;entryDx=0;entryDy=0;entryPerimeter=0;" edge="1" parent="1" source="5xjQaFgQOJaISFA-GmFy-20" target="5xjQaFgQOJaISFA-GmFy-4">
          <mxGeometry width="50" height="50" relative="1" as="geometry">
            <mxPoint x="900" y="-80" as="sourcePoint" />
            <mxPoint x="950" y="-130" as="targetPoint" />
          </mxGeometry>
        </mxCell>
        <mxCell id="ekQeNUblwh0Tk4kjdS5w-17" value="&lt;font face=&quot;Times New Roman&quot;&gt;&lt;span style=&quot;font-size: 18px;&quot;&gt;thông tin sách&lt;/span&gt;&lt;/font&gt;" style="text;html=1;align=center;verticalAlign=middle;resizable=0;points=[];autosize=1;strokeColor=none;fillColor=none;rotation=0;" vertex="1" parent="1">
          <mxGeometry x="1210" y="-350" width="120" height="40" as="geometry" />
        </mxCell>
        <mxCell id="ekQeNUblwh0Tk4kjdS5w-18" value="" style="endArrow=classic;html=1;rounded=0;exitX=0;exitY=1;exitDx=0;exitDy=0;" edge="1" parent="1" source="5xjQaFgQOJaISFA-GmFy-4">
          <mxGeometry width="50" height="50" relative="1" as="geometry">
            <mxPoint x="900" y="-80" as="sourcePoint" />
            <mxPoint x="1160" y="-274" as="targetPoint" />
          </mxGeometry>
        </mxCell>
        <mxCell id="ekQeNUblwh0Tk4kjdS5w-19" value="&lt;font face=&quot;Times New Roman&quot;&gt;&lt;span style=&quot;font-size: 18px;&quot;&gt;thông tin truy vấn&lt;/span&gt;&lt;/font&gt;" style="text;html=1;align=center;verticalAlign=middle;resizable=0;points=[];autosize=1;strokeColor=none;fillColor=none;rotation=0;" vertex="1" parent="1">
          <mxGeometry x="1195" y="-305" width="150" height="40" as="geometry" />
        </mxCell>
        <mxCell id="ekQeNUblwh0Tk4kjdS5w-20" value="" style="endArrow=classic;html=1;rounded=0;exitX=0;exitY=0.5;exitDx=0;exitDy=0;entryX=0.391;entryY=0.001;entryDx=0;entryDy=0;entryPerimeter=0;" edge="1" parent="1" source="5xjQaFgQOJaISFA-GmFy-10" target="ekQeNUblwh0Tk4kjdS5w-6">
          <mxGeometry width="50" height="50" relative="1" as="geometry">
            <mxPoint x="900" y="450" as="sourcePoint" />
            <mxPoint x="130" y="-446.9334309895833" as="targetPoint" />
            <Array as="points">
              <mxPoint x="130" y="690" />
              <mxPoint x="130" y="-260" />
            </Array>
          </mxGeometry>
        </mxCell>
        <mxCell id="ekQeNUblwh0Tk4kjdS5w-21" value="&lt;font face=&quot;Times New Roman&quot;&gt;&lt;span style=&quot;font-size: 18px;&quot;&gt;yêu cầu&amp;nbsp;&lt;/span&gt;&lt;/font&gt;&lt;div&gt;&lt;font face=&quot;Times New Roman&quot;&gt;&lt;span style=&quot;font-size: 18px;&quot;&gt;phân quyền&lt;/span&gt;&lt;/font&gt;&lt;/div&gt;" style="text;html=1;align=center;verticalAlign=middle;resizable=0;points=[];autosize=1;strokeColor=none;fillColor=none;rotation=0;" vertex="1" parent="1">
          <mxGeometry x="130" y="525" width="110" height="60" as="geometry" />
        </mxCell>
        <mxCell id="ekQeNUblwh0Tk4kjdS5w-22" value="&lt;font face=&quot;Times New Roman&quot;&gt;&lt;span style=&quot;font-size: 24px;&quot;&gt;Dữ liệu mượn - trả&lt;/span&gt;&lt;/font&gt;" style="shape=partialRectangle;whiteSpace=wrap;html=1;left=0;right=0;fillColor=none;" vertex="1" parent="1">
          <mxGeometry x="1060" width="160" height="70" as="geometry" />
        </mxCell>
        <mxCell id="ekQeNUblwh0Tk4kjdS5w-23" value="" style="endArrow=classic;html=1;rounded=0;exitX=0;exitY=0.5;exitDx=0;exitDy=0;entryX=0.5;entryY=0;entryDx=0;entryDy=0;" edge="1" parent="1" source="ekQeNUblwh0Tk4kjdS5w-22" target="5xjQaFgQOJaISFA-GmFy-3">
          <mxGeometry width="50" height="50" relative="1" as="geometry">
            <mxPoint x="650" y="60" as="sourcePoint" />
            <mxPoint x="700" y="10" as="targetPoint" />
          </mxGeometry>
        </mxCell>
        <mxCell id="ekQeNUblwh0Tk4kjdS5w-25" value="&lt;font face=&quot;Times New Roman&quot;&gt;&lt;span style=&quot;font-size: 18px;&quot;&gt;kết quả mượn,&lt;/span&gt;&lt;/font&gt;&lt;div&gt;&lt;span style=&quot;background-color: transparent; color: light-dark(rgb(0, 0, 0), rgb(255, 255, 255)); font-family: &amp;quot;Times New Roman&amp;quot;; font-size: 18px;&quot;&gt;trả&lt;/span&gt;&lt;/div&gt;" style="text;html=1;align=center;verticalAlign=middle;resizable=0;points=[];autosize=1;strokeColor=none;fillColor=none;rotation=0;" vertex="1" parent="1">
          <mxGeometry x="870" y="10" width="130" height="60" as="geometry" />
        </mxCell>
        <mxCell id="ekQeNUblwh0Tk4kjdS5w-26" value="" style="endArrow=classic;html=1;rounded=0;exitX=0.5;exitY=0;exitDx=0;exitDy=0;entryX=0.421;entryY=1.001;entryDx=0;entryDy=0;entryPerimeter=0;" edge="1" parent="1" source="5xjQaFgQOJaISFA-GmFy-3" target="5xjQaFgQOJaISFA-GmFy-7">
          <mxGeometry width="50" height="50" relative="1" as="geometry">
            <mxPoint x="650" y="190" as="sourcePoint" />
            <mxPoint x="700" y="140" as="targetPoint" />
          </mxGeometry>
        </mxCell>
      </root>
    </mxGraphModel>
  </diagram>
</mxfile>
